<svg width="200" height="200" viewBox="0 0 200 200" fill="none" xmlns="http://www.w3.org/2000/svg">
<rect width="200" height="200" rx="1.5" fill="#111419"/>
<path d="M27.9263 164.728C28.2578 164.728 28.4108 164.893 28.3853 165.225V168.476C28.3853 168.808 28.2195 168.973 27.888 168.973H19.2818L19.32 174.061H25.6313C25.7843 174.061 25.9118 174.124 26.0138 174.252C26.1158 174.354 26.1668 174.469 26.1668 174.596V177.847C26.1413 178.179 25.95 178.345 25.593 178.345H19.2818V191.503C19.2818 191.834 19.116 192 18.7845 192H15.2655C14.9085 192 14.73 191.834 14.73 191.503V165.225C14.73 164.893 14.9085 164.728 15.2655 164.728H27.9263ZM32.0008 164.689H40.5688C41.8183 164.689 42.9913 164.932 44.0878 165.416C45.2098 165.875 46.1788 166.525 46.9948 167.367C47.8108 168.183 48.461 169.152 48.9455 170.274C49.43 171.37 49.6723 172.543 49.6723 173.793C49.6723 175.501 49.2388 177.057 48.3718 178.459C47.5048 179.862 46.3828 180.958 45.0058 181.749L49.4428 191.503C49.4938 191.63 49.4938 191.745 49.4428 191.847C49.3918 191.949 49.2898 192 49.1368 192H45.4648C45.3118 192 45.1588 191.949 45.0058 191.847C44.8528 191.745 44.7508 191.63 44.6998 191.503L40.7983 182.896H36.017V191.464C36.017 191.592 35.966 191.719 35.864 191.847C35.762 191.949 35.6345 192 35.4815 192H32.0008C31.8478 192 31.7203 191.949 31.6183 191.847C31.5163 191.719 31.4653 191.592 31.4653 191.464V165.187C31.4653 164.855 31.6438 164.689 32.0008 164.689ZM40.5688 168.973H36.017V178.612H40.5688C41.2063 178.612 41.7928 178.498 42.3283 178.268C42.8893 178.013 43.3738 177.682 43.7818 177.274C44.1898 176.866 44.5085 176.381 44.738 175.82C44.993 175.259 45.1205 174.583 45.1205 173.793C45.1205 172.977 44.993 172.301 44.738 171.766C44.5085 171.205 44.1898 170.72 43.7818 170.312C43.3738 169.904 42.8893 169.585 42.3283 169.356C41.7928 169.101 41.2063 168.973 40.5688 168.973ZM57.2568 192H53.7378C53.5848 192 53.4573 191.949 53.3553 191.847C53.2533 191.719 53.2023 191.592 53.2023 191.464V172.492C53.2023 171.396 53.4063 170.363 53.8143 169.394C54.2478 168.425 54.8216 167.584 55.5356 166.87C56.2751 166.156 57.1293 165.595 58.0983 165.187C59.0673 164.753 60.1001 164.536 61.1966 164.536C62.2931 164.536 63.3258 164.753 64.2948 165.187C65.2638 165.595 66.1053 166.156 66.8193 166.87C67.5333 167.584 68.0943 168.425 68.5023 169.394C68.9358 170.363 69.1526 171.396 69.1526 172.492V191.464C69.1526 191.592 69.1016 191.719 68.9996 191.847C68.8976 191.949 68.7701 192 68.6171 192H65.0981C64.9706 192 64.8558 191.949 64.7538 191.847C64.6518 191.719 64.6008 191.592 64.6008 191.464V182.629H57.7541V191.464C57.7541 191.592 57.7031 191.719 57.6011 191.847C57.4991 191.949 57.3843 192 57.2568 192ZM64.6008 178.345V172.225C64.6008 171.281 64.2693 170.478 63.6063 169.815C62.9433 169.152 62.1401 168.82 61.1966 168.82C60.2276 168.82 59.4116 169.152 58.7486 169.815C58.0856 170.478 57.7541 171.281 57.7541 172.225V178.345H64.6008ZM77.8778 164.728C78.0308 164.728 78.1838 164.766 78.3368 164.842C78.4898 164.893 78.6173 164.983 78.7193 165.11L82.965 171.192L87.2108 165.11C87.2873 164.983 87.402 164.893 87.555 164.842C87.7335 164.766 87.8993 164.728 88.0523 164.728H91.533C91.89 164.728 92.0685 164.893 92.0685 165.225V191.503C92.0685 191.834 91.89 192 91.533 192H88.0523C87.6698 192 87.4785 191.834 87.4785 191.503L87.5168 171.995L83.271 178.039C83.1945 178.166 83.0925 178.23 82.965 178.23C82.8375 178.23 82.7355 178.166 82.659 178.039L78.4133 171.995V191.503C78.3878 191.834 78.2093 192 77.8778 192H74.397C74.04 192 73.8615 191.834 73.8615 191.503V165.225C73.8615 164.893 74.04 164.728 74.397 164.728H77.8778ZM97.3694 164.689H109.954C110.311 164.689 110.489 164.855 110.489 165.187V168.438C110.489 168.795 110.311 168.973 109.954 168.973H101.386V174.061H107.697C108.028 174.061 108.194 174.226 108.194 174.558V177.809C108.194 177.937 108.143 178.064 108.041 178.192C107.939 178.294 107.824 178.345 107.697 178.345H101.386V187.716H109.954C110.311 187.716 110.489 187.882 110.489 188.213V191.464C110.489 191.592 110.438 191.719 110.336 191.847C110.234 191.949 110.107 192 109.954 192H97.3694C97.2164 192 97.0889 191.949 96.9869 191.847C96.8849 191.719 96.8339 191.592 96.8339 191.464V165.187C96.8339 164.855 97.0124 164.689 97.3694 164.689ZM114.776 164.689H123.344C124.594 164.689 125.767 164.932 126.863 165.416C127.985 165.875 128.954 166.525 129.77 167.367C130.586 168.183 131.236 169.152 131.721 170.274C132.205 171.37 132.448 172.543 132.448 173.793C132.448 175.501 132.014 177.057 131.147 178.459C130.28 179.862 129.158 180.958 127.781 181.749L132.218 191.503C132.269 191.63 132.269 191.745 132.218 191.847C132.167 191.949 132.065 192 131.912 192H128.24C128.087 192 127.934 191.949 127.781 191.847C127.628 191.745 127.526 191.63 127.475 191.503L123.574 182.896H118.792V191.464C118.792 191.592 118.741 191.719 118.639 191.847C118.537 191.949 118.41 192 118.257 192H114.776C114.623 192 114.496 191.949 114.394 191.847C114.292 191.719 114.241 191.592 114.241 191.464V165.187C114.241 164.855 114.419 164.689 114.776 164.689ZM123.344 168.973H118.792V178.612H123.344C123.982 178.612 124.568 178.498 125.104 178.268C125.665 178.013 126.149 177.682 126.557 177.274C126.965 176.866 127.284 176.381 127.513 175.82C127.768 175.259 127.896 174.583 127.896 173.793C127.896 172.977 127.768 172.301 127.513 171.766C127.284 171.205 126.965 170.72 126.557 170.312C126.149 169.904 125.665 169.585 125.104 169.356C124.568 169.101 123.982 168.973 123.344 168.973ZM140.032 192H136.513C136.36 192 136.233 191.949 136.131 191.847C136.029 191.719 135.978 191.592 135.978 191.464V172.492C135.978 171.396 136.182 170.363 136.59 169.394C137.023 168.425 137.597 167.584 138.311 166.87C139.05 166.156 139.905 165.595 140.874 165.187C141.843 164.753 142.875 164.536 143.972 164.536C145.068 164.536 146.101 164.753 147.07 165.187C148.039 165.595 148.881 166.156 149.595 166.87C150.309 167.584 150.87 168.425 151.278 169.394C151.711 170.363 151.928 171.396 151.928 172.492V191.464C151.928 191.592 151.877 191.719 151.775 191.847C151.673 191.949 151.545 192 151.392 192H147.873C147.746 192 147.631 191.949 147.529 191.847C147.427 191.719 147.376 191.592 147.376 191.464V182.629H140.529V191.464C140.529 191.592 140.478 191.719 140.376 191.847C140.274 191.949 140.16 192 140.032 192ZM147.376 178.345V172.225C147.376 171.281 147.045 170.478 146.382 169.815C145.719 169.152 144.915 168.82 143.972 168.82C143.003 168.82 142.187 169.152 141.524 169.815C140.861 170.478 140.529 171.281 140.529 172.225V178.345H147.376ZM154.441 164.689H167.063C167.42 164.689 167.599 164.855 167.599 165.187V168.438C167.599 168.795 167.42 168.973 167.063 168.973H163.047V191.464C163.047 191.592 162.996 191.719 162.894 191.847C162.792 191.949 162.665 192 162.512 192H158.993C158.865 192 158.75 191.949 158.648 191.847C158.546 191.719 158.495 191.592 158.495 191.464V168.973H154.441C154.109 168.973 153.944 168.795 153.944 168.438V165.187C153.944 164.855 154.109 164.689 154.441 164.689ZM171.18 164.689H183.764C184.121 164.689 184.3 164.855 184.3 165.187V168.438C184.3 168.795 184.121 168.973 183.764 168.973H175.196V174.061H181.507C181.839 174.061 182.005 174.226 182.005 174.558V177.809C182.005 177.937 181.954 178.064 181.852 178.192C181.75 178.294 181.635 178.345 181.507 178.345H175.196V187.716H183.764C184.121 187.716 184.3 187.882 184.3 188.213V191.464C184.3 191.592 184.249 191.719 184.147 191.847C184.045 191.949 183.917 192 183.764 192H171.18C171.027 192 170.899 191.949 170.797 191.847C170.695 191.719 170.644 191.592 170.644 191.464V165.187C170.644 164.855 170.823 164.689 171.18 164.689Z" fill="#F1F2F3"/>
<g filter="url(#filter0_iiii_8_2)">
<rect x="12" y="12" width="175" height="145.75" rx="1" fill="#FF153A"/>
</g>
<g filter="url(#filter1_d_8_2)">
<path d="M98.0734 36.3906C98.5224 35.0086 100.478 35.0086 100.927 36.3906L110.95 67.2401C111.151 67.8582 111.727 68.2766 112.377 68.2766H144.814C146.267 68.2766 146.871 70.136 145.696 70.9901L119.453 90.0562C118.928 90.4382 118.708 91.1152 118.909 91.7333L128.932 122.583C129.381 123.965 127.799 125.114 126.624 124.26L100.382 105.194C99.8559 104.812 99.1441 104.812 98.6183 105.194L72.3761 124.26C71.2006 125.114 69.6188 123.965 70.0679 122.583L80.0915 91.7333C80.2923 91.1152 80.0723 90.4382 79.5466 90.0562L53.3044 70.9901C52.1288 70.136 52.733 68.2766 54.1861 68.2766H86.6232C87.273 68.2766 87.849 67.8582 88.0498 67.2401L98.0734 36.3906Z" fill="#111419"/>
</g>
<defs>
<filter id="filter0_iiii_8_2" x="10" y="10" width="179" height="149.75" filterUnits="userSpaceOnUse" color-interpolation-filters="sRGB">
<feFlood flood-opacity="0" result="BackgroundImageFix"/>
<feBlend mode="normal" in="SourceGraphic" in2="BackgroundImageFix" result="shape"/>
<feColorMatrix in="SourceAlpha" type="matrix" values="0 0 0 0 0 0 0 0 0 0 0 0 0 0 0 0 0 0 127 0" result="hardAlpha"/>
<feOffset dy="-2"/>
<feGaussianBlur stdDeviation="2"/>
<feComposite in2="hardAlpha" operator="arithmetic" k2="-1" k3="1"/>
<feColorMatrix type="matrix" values="0 0 0 0 0.0666667 0 0 0 0 0.0784314 0 0 0 0 0.0980392 0 0 0 0.1 0"/>
<feBlend mode="normal" in2="shape" result="effect1_innerShadow_8_2"/>
<feColorMatrix in="SourceAlpha" type="matrix" values="0 0 0 0 0 0 0 0 0 0 0 0 0 0 0 0 0 0 127 0" result="hardAlpha"/>
<feOffset dy="2"/>
<feGaussianBlur stdDeviation="2"/>
<feComposite in2="hardAlpha" operator="arithmetic" k2="-1" k3="1"/>
<feColorMatrix type="matrix" values="0 0 0 0 0.0666667 0 0 0 0 0.0784314 0 0 0 0 0.0980392 0 0 0 0.1 0"/>
<feBlend mode="normal" in2="effect1_innerShadow_8_2" result="effect2_innerShadow_8_2"/>
<feColorMatrix in="SourceAlpha" type="matrix" values="0 0 0 0 0 0 0 0 0 0 0 0 0 0 0 0 0 0 127 0" result="hardAlpha"/>
<feOffset dx="-2"/>
<feGaussianBlur stdDeviation="2"/>
<feComposite in2="hardAlpha" operator="arithmetic" k2="-1" k3="1"/>
<feColorMatrix type="matrix" values="0 0 0 0 0.0666667 0 0 0 0 0.0784314 0 0 0 0 0.0980392 0 0 0 0.1 0"/>
<feBlend mode="normal" in2="effect2_innerShadow_8_2" result="effect3_innerShadow_8_2"/>
<feColorMatrix in="SourceAlpha" type="matrix" values="0 0 0 0 0 0 0 0 0 0 0 0 0 0 0 0 0 0 127 0" result="hardAlpha"/>
<feOffset dx="2"/>
<feGaussianBlur stdDeviation="2"/>
<feComposite in2="hardAlpha" operator="arithmetic" k2="-1" k3="1"/>
<feColorMatrix type="matrix" values="0 0 0 0 0.0666667 0 0 0 0 0.0784314 0 0 0 0 0.0980392 0 0 0 0.1 0"/>
<feBlend mode="normal" in2="effect3_innerShadow_8_2" result="effect4_innerShadow_8_2"/>
</filter>
<filter id="filter1_d_8_2" x="47.6832" y="35.3541" width="101.634" height="97.199" filterUnits="userSpaceOnUse" color-interpolation-filters="sRGB">
<feFlood flood-opacity="0" result="BackgroundImageFix"/>
<feColorMatrix in="SourceAlpha" type="matrix" values="0 0 0 0 0 0 0 0 0 0 0 0 0 0 0 0 0 0 127 0" result="hardAlpha"/>
<feOffset dx="-1" dy="4"/>
<feGaussianBlur stdDeviation="2"/>
<feComposite in2="hardAlpha" operator="out"/>
<feColorMatrix type="matrix" values="0 0 0 0 0.0666667 0 0 0 0 0.0784314 0 0 0 0 0.0980392 0 0 0 0.15 0"/>
<feBlend mode="normal" in2="BackgroundImageFix" result="effect1_dropShadow_8_2"/>
<feBlend mode="normal" in="SourceGraphic" in2="effect1_dropShadow_8_2" result="shape"/>
</filter>
</defs>
</svg>
