<svg width="120" height="100" viewBox="0 0 120 100" fill="#fff" xmlns="http://www.w3.org/2000/svg">
<rect width="120" height="100" fill="#16181C"/>
<path d="M79.2528 26.4807C80.3475 28.3384 80.0918 30.6947 78.624 32.2743V32.2743C77.9624 32.9864 77.1981 33.5955 76.3563 34.0815L42.8768 53.4109L42.0283 51.9413C40.6281 49.5162 39.9281 48.3036 39.8653 47.1049C39.81 46.0504 40.09 45.0056 40.6651 44.12C41.3188 43.1133 42.5314 42.4132 44.9565 41.0131L67.679 27.8942C69.5666 26.8044 70.5104 26.2595 71.2979 25.5474C71.9965 24.9158 72.6023 24.1886 73.0974 23.3875C73.6556 22.4844 74.0211 21.4577 74.7522 19.4044L74.8768 19.0545L79.2528 26.4807Z" fill="white"/>
<path d="M48.9221 56.6686C48.2086 55.4328 48.2854 53.8935 49.1183 52.7348V52.7348C49.6192 52.038 50.2626 51.4556 51.0059 51.0265L73.5685 38L74.417 39.4696C75.8171 41.8947 76.5172 43.1073 76.58 44.306C76.6352 45.3605 76.3553 46.4053 75.7802 47.2909C75.1264 48.2976 73.9139 48.9977 71.4888 50.3978L60.8977 56.5126C59.9821 57.0412 59.5243 57.3055 59.1242 57.5924C56.676 59.3475 55.1495 62.1127 54.9687 65.1196C54.9392 65.6111 54.9595 66.1393 55 67.1957V67.1957L48.9221 56.6686Z" fill="white"/>
<path d="M77.7335 42.4723C78.3083 43.6452 78.1912 45.039 77.4289 46.0996V46.0996C76.8421 46.9158 76.0885 47.5979 75.2179 48.1005L52.8485 61.0155L49.9279 55.9569C48.8926 54.1637 49.6205 51.8687 51.5 51V51L71.6902 38.9401L75.0596 37.0155L77.7335 42.4723Z" fill="white"/>
<path d="M58 71.6603C55.2386 66.8773 56.8773 60.7614 61.6603 58V58L67.6603 68.3923C69.0604 70.8174 69.7605 72.03 69.8233 73.2287C69.8785 74.2832 69.5986 75.328 69.0235 76.2136C68.3697 77.2203 67.1571 77.9204 64.7321 79.3205L63 80.3205L58 71.6603Z" fill="white"/>
<path d="M40.5203 49.3811C39.443 47.5153 39.7087 45.1651 41.1752 43.5867V43.5867C41.8412 42.87 42.6106 42.2568 43.458 41.7676L76.9291 22.443L77.7776 23.9127C79.1777 26.3378 79.8778 27.5503 79.9406 28.7491C79.9958 29.8035 79.7159 30.8484 79.1408 31.7339C78.487 32.7407 77.2745 33.4407 74.8494 34.8409L53.8285 46.9772C51.3333 48.4179 50.0857 49.1382 49.1235 50.1237C48.2711 50.9966 47.5858 52.0181 47.1012 53.1377C46.5541 54.4017 46.3606 55.8293 45.9735 58.6844L45.9579 58.7994L40.5203 49.3811Z" fill="white"/>
</svg>
