<svg width="283" height="283" viewBox="0 0 283 283" fill="none" xmlns="http://www.w3.org/2000/svg">
<g clip-path="url(#clip0_1_2)">
<rect y="141.421" width="200" height="200" rx="6" transform="rotate(-45 0 141.421)" fill="#F1F2F3"/>
<g filter="url(#filter0_iiii_1_2)">
<rect x="16.9706" y="141.421" width="175" height="176" rx="2" transform="rotate(-45 16.9706 141.421)" fill="#FF153A"/>
</g>
<g filter="url(#filter1_d_1_2)">
<path d="M139.288 93.3119C139.737 91.93 141.692 91.93 142.141 93.3119L152.164 124.161C152.365 124.78 152.941 125.198 153.591 125.198H186.028C187.481 125.198 188.085 127.057 186.91 127.911L160.668 146.978C160.142 147.36 159.922 148.037 160.123 148.655L170.146 179.504C170.595 180.886 169.014 182.035 167.838 181.181L141.596 162.115C141.07 161.733 140.358 161.733 139.833 162.115L113.59 181.181C112.415 182.035 110.833 180.886 111.282 179.504L121.306 148.655C121.507 148.037 121.287 147.36 120.761 146.978L94.5186 127.911C93.3431 127.057 93.9472 125.198 95.4003 125.198H127.837C128.487 125.198 129.063 124.78 129.264 124.161L139.288 93.3119Z" fill="#F1F2F3"/>
</g>
</g>
<defs>
<filter id="filter0_iiii_1_2" x="15.799" y="16.5061" width="250.538" height="250.538" filterUnits="userSpaceOnUse" color-interpolation-filters="sRGB">
<feFlood flood-opacity="0" result="BackgroundImageFix"/>
<feBlend mode="normal" in="SourceGraphic" in2="BackgroundImageFix" result="shape"/>
<feColorMatrix in="SourceAlpha" type="matrix" values="0 0 0 0 0 0 0 0 0 0 0 0 0 0 0 0 0 0 127 0" result="hardAlpha"/>
<feOffset dy="-2"/>
<feGaussianBlur stdDeviation="2"/>
<feComposite in2="hardAlpha" operator="arithmetic" k2="-1" k3="1"/>
<feColorMatrix type="matrix" values="0 0 0 0 0.0666667 0 0 0 0 0.0784314 0 0 0 0 0.0980392 0 0 0 0.1 0"/>
<feBlend mode="normal" in2="shape" result="effect1_innerShadow_1_2"/>
<feColorMatrix in="SourceAlpha" type="matrix" values="0 0 0 0 0 0 0 0 0 0 0 0 0 0 0 0 0 0 127 0" result="hardAlpha"/>
<feOffset dy="2"/>
<feGaussianBlur stdDeviation="2"/>
<feComposite in2="hardAlpha" operator="arithmetic" k2="-1" k3="1"/>
<feColorMatrix type="matrix" values="0 0 0 0 0.0666667 0 0 0 0 0.0784314 0 0 0 0 0.0980392 0 0 0 0.1 0"/>
<feBlend mode="normal" in2="effect1_innerShadow_1_2" result="effect2_innerShadow_1_2"/>
<feColorMatrix in="SourceAlpha" type="matrix" values="0 0 0 0 0 0 0 0 0 0 0 0 0 0 0 0 0 0 127 0" result="hardAlpha"/>
<feOffset dx="-2"/>
<feGaussianBlur stdDeviation="2"/>
<feComposite in2="hardAlpha" operator="arithmetic" k2="-1" k3="1"/>
<feColorMatrix type="matrix" values="0 0 0 0 0.0666667 0 0 0 0 0.0784314 0 0 0 0 0.0980392 0 0 0 0.1 0"/>
<feBlend mode="normal" in2="effect2_innerShadow_1_2" result="effect3_innerShadow_1_2"/>
<feColorMatrix in="SourceAlpha" type="matrix" values="0 0 0 0 0 0 0 0 0 0 0 0 0 0 0 0 0 0 127 0" result="hardAlpha"/>
<feOffset dx="2"/>
<feGaussianBlur stdDeviation="2"/>
<feComposite in2="hardAlpha" operator="arithmetic" k2="-1" k3="1"/>
<feColorMatrix type="matrix" values="0 0 0 0 0.0666667 0 0 0 0 0.0784314 0 0 0 0 0.0980392 0 0 0 0.1 0"/>
<feBlend mode="normal" in2="effect3_innerShadow_1_2" result="effect4_innerShadow_1_2"/>
</filter>
<filter id="filter1_d_1_2" x="88.8974" y="92.2755" width="101.634" height="97.199" filterUnits="userSpaceOnUse" color-interpolation-filters="sRGB">
<feFlood flood-opacity="0" result="BackgroundImageFix"/>
<feColorMatrix in="SourceAlpha" type="matrix" values="0 0 0 0 0 0 0 0 0 0 0 0 0 0 0 0 0 0 127 0" result="hardAlpha"/>
<feOffset dx="-1" dy="4"/>
<feGaussianBlur stdDeviation="2"/>
<feComposite in2="hardAlpha" operator="out"/>
<feColorMatrix type="matrix" values="0 0 0 0 0.0666667 0 0 0 0 0.0784314 0 0 0 0 0.0980392 0 0 0 0.15 0"/>
<feBlend mode="normal" in2="BackgroundImageFix" result="effect1_dropShadow_1_2"/>
<feBlend mode="normal" in="SourceGraphic" in2="effect1_dropShadow_1_2" result="shape"/>
</filter>
<clipPath id="clip0_1_2">
<rect y="141.421" width="200" height="200" rx="6" transform="rotate(-45 0 141.421)" fill="white"/>
</clipPath>
</defs>
</svg>
