<svg width="49" height="62" viewBox="0 0 49 62" fill="none" xmlns="http://www.w3.org/2000/svg">
<path d="M43.2528 7.48069C44.3475 9.33844 44.0918 11.6947 42.624 13.2743C41.9624 13.9864 41.1981 14.5955 40.3563 15.0815L6.87676 34.4109L6.02828 32.9413C4.62815 30.5162 3.92808 29.3036 3.86526 28.1049C3.80999 27.0504 4.08997 26.0056 4.66505 25.12C5.31883 24.1133 6.53138 23.4132 8.95648 22.0131L31.679 8.89421C33.5666 7.8044 34.5104 7.2595 35.2979 6.54742C35.9965 5.91578 36.6023 5.18863 37.0974 4.38752C37.6556 3.48439 38.0211 2.45772 38.7522 0.404365L38.8768 0.054489L43.2528 7.48069Z" fill="#FFFAFB"/>
<path d="M12.9221 37.6686C12.2086 36.4328 12.2854 34.8935 13.1183 33.7348C13.6192 33.038 14.2626 32.4556 15.0059 32.0265L37.5685 19L38.417 20.4696C39.8171 22.8947 40.5172 24.1073 40.58 25.306C40.6352 26.3605 40.3553 27.4053 39.7802 28.2909C39.1264 29.2976 37.9139 29.9977 35.4888 31.3978L24.8977 37.5126C23.9821 38.0412 23.5243 38.3055 23.1242 38.5924C20.676 40.3475 19.1494 43.1127 18.9687 46.1196C18.9392 46.6111 18.9595 47.1393 19 48.1957L12.9221 37.6686Z" fill="#FFFAFB"/>
<path d="M41.7335 23.4723C42.3083 24.6452 42.1912 26.039 41.4289 27.0996C40.8421 27.9158 40.0885 28.5979 39.2179 29.1005L16.8485 42.0155L13.9279 36.9569C12.8926 35.1637 13.6205 32.8687 15.5 32L35.6902 19.9401L39.0596 18.0155L41.7335 23.4723Z" fill="#FFFAFB"/>
<path d="M22 52.6603C19.2386 47.8773 20.8773 41.7614 25.6603 39L31.6603 49.3923C33.0604 51.8174 33.7605 53.03 33.8233 54.2287C33.8785 55.2832 33.5986 56.328 33.0235 57.2136C32.3697 58.2203 31.1571 58.9204 28.7321 60.3205L27 61.3205L22 52.6603Z" fill="#FFFAFB"/>
<path d="M4.52027 30.3811C3.44303 28.5153 3.70867 26.1651 5.17519 24.5867C5.8412 23.87 6.61063 23.2568 7.45798 22.7676L40.9291 3.44304L41.7776 4.91266C43.1777 7.33776 43.8778 8.55031 43.9406 9.74905C43.9958 10.8035 43.7159 11.8484 43.1408 12.7339C42.487 13.7407 41.2745 14.4407 38.8494 15.8409L17.8285 27.9772C15.3333 29.4179 14.0857 30.1382 13.1235 31.1237C12.2711 31.9966 11.5858 33.0181 11.1012 34.1377C10.5541 35.4017 10.3606 36.8293 9.97353 39.6844L9.95794 39.7994L4.52027 30.3811Z" fill="#FFFAFB"/>
</svg>
